<?xml version="1.0" encoding="UTF-8" standalone="no"?>
<!-- Created with Inkscape (http://www.inkscape.org/) -->

<svg
   version="1.1"
   id="svg1"
   width="1122.6667"
   height="793.33331"
   viewBox="0 0 1122.6667 793.33331"
   sodipodi:docname="8db3d001-408f-41a3-9f06-d554622e8a25.ai"
   xmlns:inkscape="http://www.inkscape.org/namespaces/inkscape"
   xmlns:sodipodi="http://sodipodi.sourceforge.net/DTD/sodipodi-0.dtd"
   xmlns="http://www.w3.org/2000/svg"
   xmlns:svg="http://www.w3.org/2000/svg">
  <defs
     id="defs1">
    <clipPath
       clipPathUnits="userSpaceOnUse"
       id="clipPath2">
      <path
         d="M 0,595 H 842 V 0 H 0 Z"
         transform="translate(-670.62772,-312.58321)"
         id="path2" />
    </clipPath>
    <clipPath
       clipPathUnits="userSpaceOnUse"
       id="clipPath4">
      <path
         d="M 0,595 H 842 V 0 H 0 Z"
         transform="translate(-195.5677,-319.44521)"
         id="path4" />
    </clipPath>
    <clipPath
       clipPathUnits="userSpaceOnUse"
       id="clipPath6">
      <path
         d="M 0,595 H 842 V 0 H 0 Z"
         transform="translate(-567.01882,-312.91461)"
         id="path6" />
    </clipPath>
    <clipPath
       clipPathUnits="userSpaceOnUse"
       id="clipPath8">
      <path
         d="M 0,595 H 842 V 0 H 0 Z"
         transform="translate(-324.96391,-310.78331)"
         id="path8" />
    </clipPath>
  </defs>
  <sodipodi:namedview
     id="namedview1"
     pagecolor="#ffffff"
     bordercolor="#000000"
     borderopacity="0.25"
     inkscape:showpageshadow="2"
     inkscape:pageopacity="0.0"
     inkscape:pagecheckerboard="0"
     inkscape:deskcolor="#d1d1d1">
    <inkscape:page
       x="0"
       y="0"
       inkscape:label="1"
       id="page1"
       width="1122.6667"
       height="793.33331"
       margin="341.164 107.86 343.46399 107.71307"
       bleed="0" />
  </sodipodi:namedview>
  <g
     id="layer-MC0"
     inkscape:groupmode="layer"
     inkscape:label="Background"
     style="display:none" />
  <g
     id="layer-MC1"
     inkscape:groupmode="layer"
     inkscape:label="Guides" />
  <g
     id="layer-MC2"
     inkscape:groupmode="layer"
     inkscape:label="Foreground">
    <path
       id="path1"
       d="M 0,0 C 5.201,12.222 13.887,15.174 26.171,15.174 H 90.477 L 84.037,-2.224 H 27.261 l -3.86,-10.432 H 75.237 L 69.454,-28.293 H 17.616 l -3.86,-10.429 H 89.109 C 83.904,-52.785 76.011,-56.707 61.818,-56.707 l -61.876,0.01 c -12.862,0 -19.794,3.33 -14.606,17.346 l 13.596,36.682 z"
       style="fill:#127bca;fill-opacity:1;fill-rule:evenodd;stroke:none"
       transform="matrix(1.3333333,0,0,-1.3333333,894.17027,376.55573)"
       clip-path="url(#clipPath2)" />
    <path
       id="path3"
       d="m 0,0 h -35.762 l -23.485,-63.511 h -7.921 c -12.862,0 -19.928,3.473 -14.743,17.489 L -64.927,0 -114.783,-0.01 -113.641,3 c 5.212,12.036 13.839,14.957 26.051,14.957 H 6.642 Z"
       style="fill:#127bca;fill-opacity:1;fill-rule:evenodd;stroke:none"
       transform="matrix(1.3333333,0,0,-1.3333333,260.75693,367.4064)"
       clip-path="url(#clipPath4)" />
    <path
       id="path5"
       d="m 0,0 c 5.212,12.036 13.839,14.957 26.05,14.957 h 83.19 L 102.598,-3 H 70.456 L 50.461,-57.041 h -7.922 c -12.862,0 -19.928,3.473 -14.742,17.488 L 41.291,-3 -1.142,-3.01 Z"
       style="fill:#127bca;fill-opacity:1;fill-rule:evenodd;stroke:none"
       transform="matrix(1.3333333,0,0,-1.3333333,756.02507,376.11387)"
       clip-path="url(#clipPath6)" />
    <path
       id="path7"
       d="m 0,0 -13.643,-36.819 h 54.091 l 13.633,36.773 c 5.096,13.772 14.052,17.02 26.932,17.02 h 64.305 L 138.882,-0.424 H 82.105 l -3.861,-10.432 h 51.839 l -5.785,-15.637 H 72.46 l -3.861,-10.429 77.196,0.006 h 65.688 l 4.025,10.879 -48.143,0.014 c -13.819,0 -19.658,3.68 -14.201,18.445 l 2.801,7.644 c 5.097,13.77 14.052,17.022 26.933,17.022 h 64.675 l -5.546,-14.957 -1.057,-3.01 c -0.057,0 -58.282,-0.022 -58.282,-0.022 l -3.483,-9.418 50.096,-0.012 c 12.863,0 19.794,-3.331 14.608,-17.346 l -3.751,-10.206 c -5.095,-13.771 -8.621,-17.022 -21.502,-17.022 l -60.289,-0.002 c -12.606,0 -19.575,3.235 -14.966,16.561 -5.208,-12.905 -13.038,-16.561 -26.74,-16.561 l -61.876,0.01 c -12.2,0 -19.064,2.998 -15.312,15.268 -5.223,-11.855 -9.317,-15.264 -22.601,-15.276 l -44.593,-0.005 c -12.751,0 -19.723,3.246 -14.783,16.967 -5.209,-13.089 -16.051,-16.788 -29.831,-16.788 l -61.878,0.009 c -12.05,0 -18.893,2.923 -15.445,14.817 l 1.071,3.079 13.67,36.954 c 5.097,13.775 14.052,17.021 26.933,17.021 h 64.306 L -50.117,-0.25 h -56.776 l -3.86,-10.431 h 51.838 l -5.787,-15.636 h -51.835 l -3.861,-10.429 h 78.352 l 20.05,54.242 7.282,-0.004 C -1.852,17.492 5.911,15.805 0,0"
       style="fill:#127bca;fill-opacity:1;fill-rule:evenodd;stroke:none"
       transform="matrix(1.3333333,0,0,-1.3333333,433.2852,378.9556)"
       clip-path="url(#clipPath8)" />
  </g>
</svg>
